<svg xmlns="http://www.w3.org/2000/svg" xmlns:xlink="http://www.w3.org/1999/xlink" width="1920" height="1080" viewBox="0 0 1920 1080">
  <defs>
    <clipPath id="clip-Web_1920_3">
      <rect width="1920" height="1080"/>
    </clipPath>
  </defs>
  <g id="Web_1920_3" data-name="Web 1920 – 3" clip-path="url(#clip-Web_1920_3)">
    <rect width="1920" height="1080"/>
    <g id="Group_1" data-name="Group 1">
      <rect id="Rectangle_1" data-name="Rectangle 1" width="673" height="677" rx="13" transform="translate(68 346)" fill="#292929"/>
      <rect id="Rectangle_18" data-name="Rectangle 18" width="368" height="56" rx="9" transform="translate(87 921)" fill="#fab83b"/>
      <rect id="Rectangle_17" data-name="Rectangle 17" width="637" height="56" rx="9" transform="translate(90 807)" fill="#a6ff6f"/>
      <rect id="Rectangle_16" data-name="Rectangle 16" width="637" height="56" rx="9" transform="translate(90 693)" fill="#cea0f5"/>
      <rect id="Rectangle_15" data-name="Rectangle 15" width="637" height="56" rx="9" transform="translate(88 579)" fill="#93cdff"/>
      <rect id="Rectangle_14" data-name="Rectangle 14" width="430" height="56" rx="9" transform="translate(295 465)" fill="#ff2b95"/>
      <text id="April" transform="translate(716 212)" fill="#00e697" font-size="202" font-family="Poppins-Bold, Poppins" font-weight="700"><tspan x="0" y="0">April</tspan></text>
      <line id="Line_1" data-name="Line 1" x2="2089" transform="translate(0.5 283.5)" fill="none" stroke="#fff" stroke-width="1"/>
      <g id="Polygon_1" data-name="Polygon 1" transform="translate(1385 196) rotate(180)" fill="#00e697">
        <path d="M 88.133544921875 76.5 L 0.8664562106132507 76.5 L 44.5 0.9992613196372986 L 88.133544921875 76.5 Z" stroke="none"/>
        <path d="M 44.5 1.998519897460938 L 1.73291015625 76 L 87.26708984375 76 L 44.5 1.998519897460938 M 44.5 0 L 89 77 L 0 77 L 44.5 0 Z" stroke="none" fill="#00e697"/>
      </g>
      <rect id="Rectangle_2" data-name="Rectangle 2" width="165" height="165" rx="13" transform="translate(830 394)" fill="#ff2b95"/>
      <rect id="Rectangle_3" data-name="Rectangle 3" width="165" height="164" rx="13" transform="translate(830 600)" fill="#ff2b95"/>
      <rect id="Rectangle_4" data-name="Rectangle 4" width="165" height="165" rx="13" transform="translate(830 804)" fill="#ff2b95"/>
      <rect id="Rectangle_5" data-name="Rectangle 5" width="165" height="165" rx="13" transform="translate(1472 394)" fill="#a6ff6f"/>
      <rect id="Rectangle_6" data-name="Rectangle 6" width="165" height="164" rx="13" transform="translate(1472 600)" fill="#a6ff6f"/>
      <rect id="Rectangle_7" data-name="Rectangle 7" width="165" height="165" rx="13" transform="translate(1472 804)" fill="#a6ff6f"/>
      <rect id="Rectangle_8" data-name="Rectangle 8" width="165" height="165" rx="13" transform="translate(1044 394)" fill="#93ffe6"/>
      <rect id="Rectangle_9" data-name="Rectangle 9" width="165" height="164" rx="13" transform="translate(1044 600)" fill="#93ffe6"/>
      <rect id="Rectangle_10" data-name="Rectangle 10" width="165" height="165" rx="13" transform="translate(1044 804)" fill="#93ffe6"/>
      <rect id="Rectangle_11" data-name="Rectangle 11" width="165" height="165" rx="13" transform="translate(1258 394)" fill="#cea0f5"/>
      <rect id="Rectangle_12" data-name="Rectangle 12" width="165" height="164" rx="13" transform="translate(1258 600)" fill="#cea0f5"/>
      <rect id="Rectangle_13" data-name="Rectangle 13" width="165" height="165" rx="13" transform="translate(1258 804)" fill="#cea0f5"/>
      <text id="M_T_W_T_F_S_S_" data-name="M T W T F S S " transform="translate(93 408)" fill="#fff" font-size="40" font-family="Poppins-SemiBold, Poppins" font-weight="600" letter-spacing="0.8em"><tspan x="0" y="0">M T W T F S S </tspan></text>
      <line id="Line_2" data-name="Line 2" x2="673" transform="translate(68.5 443.5)" fill="none" stroke="#707070" stroke-width="1"/>
      <text id="_1_2_3_4_5_" data-name="1 2 3 4 5 " transform="translate(306 507)" fill="#fff" font-size="40" font-family="Poppins-SemiBold, Poppins" font-weight="600" letter-spacing="0.8em"><tspan x="0" y="0">1 2 3 4 5 </tspan></text>
      <text id="_6" data-name="6" transform="translate(93 621)" fill="#fff" font-size="40" font-family="Poppins-SemiBold, Poppins" font-weight="600" letter-spacing="0.8em"><tspan x="0" y="0">6</tspan></text>
      <text id="_7" data-name="7" transform="translate(194 621)" fill="#fff" font-size="40" font-family="Poppins-SemiBold, Poppins" font-weight="600" letter-spacing="0.8em"><tspan x="0" y="0">7</tspan></text>
      <text id="_8" data-name="8" transform="translate(295 621)" fill="#fff" font-size="40" font-family="Poppins-SemiBold, Poppins" font-weight="600" letter-spacing="0.8em"><tspan x="0" y="0">8</tspan></text>
      <text id="_9" data-name="9" transform="translate(396 621)" fill="#fff" font-size="40" font-family="Poppins-SemiBold, Poppins" font-weight="600" letter-spacing="0.8em"><tspan x="0" y="0">9</tspan></text>
      <text id="_10" data-name="10" transform="translate(497 621)" fill="#fff" font-size="40" font-family="Poppins-SemiBold, Poppins" font-weight="600"><tspan x="0" y="0">10</tspan></text>
      <text id="_11" data-name="11" transform="translate(598 621)" fill="#fff" font-size="40" font-family="Poppins-SemiBold, Poppins" font-weight="600"><tspan x="0" y="0">11</tspan></text>
      <text id="_12" data-name="12" transform="translate(682 621)" fill="#fff" font-size="40" font-family="Poppins-SemiBold, Poppins" font-weight="600"><tspan x="0" y="0">12</tspan></text>
      <text id="_27" data-name="27" transform="translate(93 963)" fill="#fff" font-size="40" font-family="Poppins-SemiBold, Poppins" font-weight="600"><tspan x="0" y="0">27</tspan></text>
      <text id="_28" data-name="28" transform="translate(194 963)" fill="#fff" font-size="40" font-family="Poppins-SemiBold, Poppins" font-weight="600"><tspan x="0" y="0">28</tspan></text>
      <text id="_29" data-name="29" transform="translate(295 963)" fill="#fff" font-size="40" font-family="Poppins-SemiBold, Poppins" font-weight="600"><tspan x="0" y="0">29</tspan></text>
      <text id="_30" data-name="30" transform="translate(396 963)" fill="#fff" font-size="40" font-family="Poppins-SemiBold, Poppins" font-weight="600"><tspan x="0" y="0">30</tspan></text>
      <text id="_13" data-name="13" transform="translate(93 735)" fill="#fff" font-size="40" font-family="Poppins-SemiBold, Poppins" font-weight="600"><tspan x="0" y="0">13</tspan></text>
      <text id="_14" data-name="14" transform="translate(194 735)" fill="#fff" font-size="40" font-family="Poppins-SemiBold, Poppins" font-weight="600"><tspan x="0" y="0">14</tspan></text>
      <text id="_15" data-name="15" transform="translate(295 735)" fill="#fff" font-size="40" font-family="Poppins-SemiBold, Poppins" font-weight="600"><tspan x="0" y="0">15</tspan></text>
      <text id="_16" data-name="16" transform="translate(396 735)" fill="#fff" font-size="40" font-family="Poppins-SemiBold, Poppins" font-weight="600"><tspan x="0" y="0">16</tspan></text>
      <text id="_17" data-name="17" transform="translate(497 735)" fill="#fff" font-size="40" font-family="Poppins-SemiBold, Poppins" font-weight="600"><tspan x="0" y="0">17</tspan></text>
      <text id="_18" data-name="18" transform="translate(598 735)" fill="#fff" font-size="40" font-family="Poppins-SemiBold, Poppins" font-weight="600"><tspan x="0" y="0">18</tspan></text>
      <text id="_19" data-name="19" transform="translate(682 735)" fill="#fff" font-size="40" font-family="Poppins-SemiBold, Poppins" font-weight="600"><tspan x="0" y="0">19</tspan></text>
      <text id="_20" data-name="20" transform="translate(93 849)" fill="#fff" font-size="40" font-family="Poppins-SemiBold, Poppins" font-weight="600"><tspan x="0" y="0">20</tspan></text>
      <text id="_21" data-name="21" transform="translate(194 849)" fill="#fff" font-size="40" font-family="Poppins-SemiBold, Poppins" font-weight="600"><tspan x="0" y="0">21</tspan></text>
      <text id="_22" data-name="22" transform="translate(295 849)" fill="#fff" font-size="40" font-family="Poppins-SemiBold, Poppins" font-weight="600"><tspan x="0" y="0">22</tspan></text>
      <text id="_23" data-name="23" transform="translate(396 849)" fill="#fff" font-size="40" font-family="Poppins-SemiBold, Poppins" font-weight="600"><tspan x="0" y="0">23</tspan></text>
      <text id="_24" data-name="24" transform="translate(497 849)" fill="#fff" font-size="40" font-family="Poppins-SemiBold, Poppins" font-weight="600"><tspan x="0" y="0">24</tspan></text>
      <text id="_25" data-name="25" transform="translate(598 849)" fill="#fff" font-size="40" font-family="Poppins-SemiBold, Poppins" font-weight="600"><tspan x="0" y="0">25</tspan></text>
      <text id="_26" data-name="26" transform="translate(682 849)" fill="#fff" font-size="40" font-family="Poppins-SemiBold, Poppins" font-weight="600"><tspan x="0" y="0">26</tspan></text>
      <rect id="Rectangle_19" data-name="Rectangle 19" width="165" height="165" rx="13" transform="translate(1686 394)" fill="#fab83b"/>
      <rect id="Rectangle_20" data-name="Rectangle 20" width="165" height="164" rx="13" transform="translate(1686 600)" fill="#fab83b"/>
      <rect id="Rectangle_21" data-name="Rectangle 21" width="165" height="165" rx="13" transform="translate(1686 804)" fill="#fab83b"/>
    </g>
  </g>
</svg>
