<svg xmlns="http://www.w3.org/2000/svg" xmlns:xlink="http://www.w3.org/1999/xlink" width="1920" height="1080" viewBox="0 0 1920 1080">
  <defs>
    <clipPath id="clip-Web_1920_3">
      <rect width="1920" height="1080"/>
    </clipPath>
  </defs>
  <g id="Web_1920_3" data-name="Web 1920 – 3" clip-path="url(#clip-Web_1920_3)">
    <rect width="1920" height="1080" fill="#effff1"/>
    <path id="Path_1" data-name="Path 1" d="M0,0H1920V131H0Z" transform="translate(0 34)" fill="#ffdcc6"/>
    <text id="View_Books" data-name="View Books" transform="translate(0 48)" fill="#14e2aa" font-size="82" font-family="SourceCodePro-Regular, Source Code Pro" text-decoration="underline"><tspan x="714" y="81">View Books</tspan></text>
    <g id="Rectangle_4" data-name="Rectangle 4" transform="translate(181 187)" fill="none" stroke="#14e2aa" stroke-width="2">
      <rect width="299" height="406" rx="11" stroke="none"/>
      <rect x="1" y="1" width="297" height="404" rx="10" fill="none"/>
    </g>
    <line id="Line_8" data-name="Line 8" x2="299" transform="translate(181.5 501.5)" fill="none" stroke="#12cb99" stroke-width="1"/>
    <text id="Date" transform="translate(331 556)" fill="#14e2aa" font-size="44" font-family="SourceCodePro-Regular, Source Code Pro"><tspan x="-52.8" y="0">Date</tspan></text>
    <g id="Rectangle_8" data-name="Rectangle 8" transform="translate(182 653)" fill="none" stroke="#14e2aa" stroke-width="2">
      <rect width="299" height="406" rx="11" stroke="none"/>
      <rect x="1" y="1" width="297" height="404" rx="10" fill="none"/>
    </g>
    <line id="Line_12" data-name="Line 12" x2="299" transform="translate(182.5 967.5)" fill="none" stroke="#12cb99" stroke-width="1"/>
    <text id="Date-2" data-name="Date" transform="translate(332 1022)" fill="#14e2aa" font-size="44" font-family="SourceCodePro-Regular, Source Code Pro"><tspan x="-52.8" y="0">Date</tspan></text>
    <g id="Rectangle_9" data-name="Rectangle 9" transform="translate(592 187)" fill="none" stroke="#14e2aa" stroke-width="2">
      <rect width="299" height="406" rx="11" stroke="none"/>
      <rect x="1" y="1" width="297" height="404" rx="10" fill="none"/>
    </g>
    <line id="Line_13" data-name="Line 13" x2="299" transform="translate(592.5 501.5)" fill="none" stroke="#12cb99" stroke-width="1"/>
    <text id="Date-3" data-name="Date" transform="translate(742 556)" fill="#14e2aa" font-size="44" font-family="SourceCodePro-Regular, Source Code Pro"><tspan x="-52.8" y="0">Date</tspan></text>
    <g id="Rectangle_10" data-name="Rectangle 10" transform="translate(593 653)" fill="none" stroke="#14e2aa" stroke-width="2">
      <rect width="299" height="406" rx="11" stroke="none"/>
      <rect x="1" y="1" width="297" height="404" rx="10" fill="none"/>
    </g>
    <line id="Line_14" data-name="Line 14" x2="299" transform="translate(593.5 967.5)" fill="none" stroke="#12cb99" stroke-width="1"/>
    <text id="Date-4" data-name="Date" transform="translate(743 1022)" fill="#14e2aa" font-size="44" font-family="SourceCodePro-Regular, Source Code Pro"><tspan x="-52.8" y="0">Date</tspan></text>
    <g id="Rectangle_11" data-name="Rectangle 11" transform="translate(1003 187)" fill="none" stroke="#14e2aa" stroke-width="2">
      <rect width="299" height="406" rx="11" stroke="none"/>
      <rect x="1" y="1" width="297" height="404" rx="10" fill="none"/>
    </g>
    <line id="Line_15" data-name="Line 15" x2="299" transform="translate(1003.5 501.5)" fill="none" stroke="#12cb99" stroke-width="1"/>
    <text id="Date-5" data-name="Date" transform="translate(1153 556)" fill="#14e2aa" font-size="44" font-family="SourceCodePro-Regular, Source Code Pro"><tspan x="-52.8" y="0">Date</tspan></text>
    <g id="Rectangle_12" data-name="Rectangle 12" transform="translate(1004 653)" fill="none" stroke="#14e2aa" stroke-width="2">
      <rect width="299" height="406" rx="11" stroke="none"/>
      <rect x="1" y="1" width="297" height="404" rx="10" fill="none"/>
    </g>
    <line id="Line_16" data-name="Line 16" x2="299" transform="translate(1004.5 967.5)" fill="none" stroke="#12cb99" stroke-width="1"/>
    <text id="Date-6" data-name="Date" transform="translate(1154 1022)" fill="#14e2aa" font-size="44" font-family="SourceCodePro-Regular, Source Code Pro"><tspan x="-52.8" y="0">Date</tspan></text>
    <g id="Rectangle_13" data-name="Rectangle 13" transform="translate(1414 187)" fill="none" stroke="#14e2aa" stroke-width="2">
      <rect width="299" height="406" rx="11" stroke="none"/>
      <rect x="1" y="1" width="297" height="404" rx="10" fill="none"/>
    </g>
    <line id="Line_17" data-name="Line 17" x2="299" transform="translate(1414.5 501.5)" fill="none" stroke="#12cb99" stroke-width="1"/>
    <text id="Date-7" data-name="Date" transform="translate(1564 556)" fill="#14e2aa" font-size="44" font-family="SourceCodePro-Regular, Source Code Pro"><tspan x="-52.8" y="0">Date</tspan></text>
    <g id="Rectangle_14" data-name="Rectangle 14" transform="translate(1415 653)" fill="none" stroke="#14e2aa" stroke-width="2">
      <rect width="299" height="406" rx="11" stroke="none"/>
      <rect x="1" y="1" width="297" height="404" rx="10" fill="none"/>
    </g>
    <line id="Line_18" data-name="Line 18" x2="299" transform="translate(1415.5 967.5)" fill="none" stroke="#12cb99" stroke-width="1"/>
    <text id="Date-8" data-name="Date" transform="translate(1565 1022)" fill="#14e2aa" font-size="44" font-family="SourceCodePro-Regular, Source Code Pro"><tspan x="-52.8" y="0">Date</tspan></text>
  </g>
</svg>
