<svg xmlns="http://www.w3.org/2000/svg" xmlns:xlink="http://www.w3.org/1999/xlink" width="1920" height="1080" viewBox="0 0 1920 1080">
  <defs>
    <clipPath id="clip-Web_1920_8">
      <rect width="1920" height="1080"/>
    </clipPath>
  </defs>
  <g id="Web_1920_8" data-name="Web 1920 – 8" clip-path="url(#clip-Web_1920_8)">
    <rect width="1920" height="1080" fill="#d9ecff"/>
    <g id="Group_3" data-name="Group 3">
      <text id="VIEW_BOOKS" data-name="VIEW BOOKS" transform="translate(960 139)" fill="#00e697" font-size="132" font-family="Poppins-Bold, Poppins" font-weight="700"><tspan x="-417.648" y="0">V</tspan><tspan y="0" fill="#ff2b95">I</tspan><tspan y="0" fill="#ecc946">E</tspan><tspan y="0" fill="#354cfc">W </tspan><tspan y="0" fill="#bc35f8">B</tspan><tspan y="0" fill="#00d8ff">O</tspan><tspan y="0" fill="#0ad649">O</tspan><tspan y="0" fill="#354cfc">K</tspan><tspan y="0" fill="#ff2b95">S</tspan></text>
      <rect id="Rectangle_1" data-name="Rectangle 1" width="673" height="677" rx="13" transform="translate(69 253)" fill="#292929"/>
      <rect id="Rectangle_18" data-name="Rectangle 18" width="368" height="56" rx="9" transform="translate(88 828)" fill="#bc35f8"/>
      <rect id="Rectangle_17" data-name="Rectangle 17" width="637" height="56" rx="9" transform="translate(91 714)" fill="#0ad649"/>
      <rect id="Rectangle_16" data-name="Rectangle 16" width="637" height="56" rx="9" transform="translate(91 600)" fill="#354cfc"/>
      <rect id="Rectangle_15" data-name="Rectangle 15" width="637" height="56" rx="9" transform="translate(89 486)" fill="#ecc946"/>
      <rect id="Rectangle_14" data-name="Rectangle 14" width="430" height="56" rx="9" transform="translate(296 372)" fill="#ff2b95"/>
      <rect id="Rectangle_2" data-name="Rectangle 2" width="165" height="165" rx="13" transform="translate(831 301)" fill="#ff2b95"/>
      <rect id="Rectangle_3" data-name="Rectangle 3" width="165" height="164" rx="13" transform="translate(831 507)" fill="#ff2b95"/>
      <rect id="Rectangle_4" data-name="Rectangle 4" width="165" height="165" rx="13" transform="translate(831 711)" fill="#ff2b95"/>
      <rect id="Rectangle_5" data-name="Rectangle 5" width="165" height="165" rx="13" transform="translate(1473 301)" fill="#0ad649"/>
      <rect id="Rectangle_6" data-name="Rectangle 6" width="165" height="164" rx="13" transform="translate(1473 507)" fill="#0ad649"/>
      <rect id="Rectangle_7" data-name="Rectangle 7" width="165" height="165" rx="13" transform="translate(1473 711)" fill="#0ad649"/>
      <rect id="Rectangle_8" data-name="Rectangle 8" width="165" height="165" rx="13" transform="translate(1045 301)" fill="#ecc946"/>
      <rect id="Rectangle_9" data-name="Rectangle 9" width="165" height="164" rx="13" transform="translate(1045 507)" fill="#ecc946"/>
      <rect id="Rectangle_10" data-name="Rectangle 10" width="165" height="165" rx="13" transform="translate(1045 711)" fill="#ecc946"/>
      <rect id="Rectangle_11" data-name="Rectangle 11" width="165" height="165" rx="13" transform="translate(1259 301)" fill="#354cfc"/>
      <rect id="Rectangle_12" data-name="Rectangle 12" width="165" height="164" rx="13" transform="translate(1259 507)" fill="#354cfc"/>
      <rect id="Rectangle_13" data-name="Rectangle 13" width="165" height="165" rx="13" transform="translate(1259 711)" fill="#354cfc"/>
      <text id="M_T_W_T_F_S_S_" data-name="M T W T F S S " transform="translate(94 315)" fill="#fff" font-size="40" font-family="Poppins-SemiBold, Poppins" font-weight="600" letter-spacing="0.8em"><tspan x="0" y="0">M T W T F S S </tspan></text>
      <line id="Line_2" data-name="Line 2" x2="673" transform="translate(69.5 350.5)" fill="none" stroke="#707070" stroke-width="1"/>
      <text id="_1_2_3_4_5_" data-name="1 2 3 4 5 " transform="translate(307 414)" fill="#fff" font-size="40" font-family="Poppins-SemiBold, Poppins" font-weight="600" letter-spacing="0.8em"><tspan x="0" y="0">1 2 3 4 5 </tspan></text>
      <text id="_6" data-name="6" transform="translate(94 528)" fill="#fff" font-size="40" font-family="Poppins-SemiBold, Poppins" font-weight="600" letter-spacing="0.8em"><tspan x="0" y="0">6</tspan></text>
      <text id="_7" data-name="7" transform="translate(195 528)" fill="#fff" font-size="40" font-family="Poppins-SemiBold, Poppins" font-weight="600" letter-spacing="0.8em"><tspan x="0" y="0">7</tspan></text>
      <text id="_8" data-name="8" transform="translate(296 528)" fill="#fff" font-size="40" font-family="Poppins-SemiBold, Poppins" font-weight="600" letter-spacing="0.8em"><tspan x="0" y="0">8</tspan></text>
      <text id="_9" data-name="9" transform="translate(397 528)" fill="#fff" font-size="40" font-family="Poppins-SemiBold, Poppins" font-weight="600" letter-spacing="0.8em"><tspan x="0" y="0">9</tspan></text>
      <text id="_10" data-name="10" transform="translate(498 528)" fill="#fff" font-size="40" font-family="Poppins-SemiBold, Poppins" font-weight="600"><tspan x="0" y="0">10</tspan></text>
      <text id="_11" data-name="11" transform="translate(599 528)" fill="#fff" font-size="40" font-family="Poppins-SemiBold, Poppins" font-weight="600"><tspan x="0" y="0">11</tspan></text>
      <text id="_12" data-name="12" transform="translate(683 528)" fill="#fff" font-size="40" font-family="Poppins-SemiBold, Poppins" font-weight="600"><tspan x="0" y="0">12</tspan></text>
      <text id="_27" data-name="27" transform="translate(94 870)" fill="#fff" font-size="40" font-family="Poppins-SemiBold, Poppins" font-weight="600"><tspan x="0" y="0">27</tspan></text>
      <text id="_28" data-name="28" transform="translate(195 870)" fill="#fff" font-size="40" font-family="Poppins-SemiBold, Poppins" font-weight="600"><tspan x="0" y="0">28</tspan></text>
      <text id="_29" data-name="29" transform="translate(296 870)" fill="#fff" font-size="40" font-family="Poppins-SemiBold, Poppins" font-weight="600"><tspan x="0" y="0">29</tspan></text>
      <text id="_30" data-name="30" transform="translate(397 870)" fill="#fff" font-size="40" font-family="Poppins-SemiBold, Poppins" font-weight="600"><tspan x="0" y="0">30</tspan></text>
      <text id="_13" data-name="13" transform="translate(94 642)" fill="#fff" font-size="40" font-family="Poppins-SemiBold, Poppins" font-weight="600"><tspan x="0" y="0">13</tspan></text>
      <text id="_14" data-name="14" transform="translate(195 642)" fill="#fff" font-size="40" font-family="Poppins-SemiBold, Poppins" font-weight="600"><tspan x="0" y="0">14</tspan></text>
      <text id="_15" data-name="15" transform="translate(296 642)" fill="#fff" font-size="40" font-family="Poppins-SemiBold, Poppins" font-weight="600"><tspan x="0" y="0">15</tspan></text>
      <text id="_16" data-name="16" transform="translate(397 642)" fill="#fff" font-size="40" font-family="Poppins-SemiBold, Poppins" font-weight="600"><tspan x="0" y="0">16</tspan></text>
      <text id="_17" data-name="17" transform="translate(498 642)" fill="#fff" font-size="40" font-family="Poppins-SemiBold, Poppins" font-weight="600"><tspan x="0" y="0">17</tspan></text>
      <text id="_18" data-name="18" transform="translate(599 642)" fill="#fff" font-size="40" font-family="Poppins-SemiBold, Poppins" font-weight="600"><tspan x="0" y="0">18</tspan></text>
      <text id="_19" data-name="19" transform="translate(683 642)" fill="#fff" font-size="40" font-family="Poppins-SemiBold, Poppins" font-weight="600"><tspan x="0" y="0">19</tspan></text>
      <text id="_20" data-name="20" transform="translate(94 756)" fill="#fff" font-size="40" font-family="Poppins-SemiBold, Poppins" font-weight="600"><tspan x="0" y="0">20</tspan></text>
      <text id="_21" data-name="21" transform="translate(195 756)" fill="#fff" font-size="40" font-family="Poppins-SemiBold, Poppins" font-weight="600"><tspan x="0" y="0">21</tspan></text>
      <text id="_22" data-name="22" transform="translate(296 756)" fill="#fff" font-size="40" font-family="Poppins-SemiBold, Poppins" font-weight="600"><tspan x="0" y="0">22</tspan></text>
      <text id="_23" data-name="23" transform="translate(397 756)" fill="#fff" font-size="40" font-family="Poppins-SemiBold, Poppins" font-weight="600"><tspan x="0" y="0">23</tspan></text>
      <text id="_24" data-name="24" transform="translate(498 756)" fill="#fff" font-size="40" font-family="Poppins-SemiBold, Poppins" font-weight="600"><tspan x="0" y="0">24</tspan></text>
      <text id="_25" data-name="25" transform="translate(599 756)" fill="#fff" font-size="40" font-family="Poppins-SemiBold, Poppins" font-weight="600"><tspan x="0" y="0">25</tspan></text>
      <text id="_26" data-name="26" transform="translate(683 756)" fill="#fff" font-size="40" font-family="Poppins-SemiBold, Poppins" font-weight="600"><tspan x="0" y="0">26</tspan></text>
      <rect id="Rectangle_19" data-name="Rectangle 19" width="165" height="165" rx="13" transform="translate(1687 301)" fill="#bc35f8"/>
      <rect id="Rectangle_20" data-name="Rectangle 20" width="165" height="164" rx="13" transform="translate(1687 507)" fill="#bc35f8"/>
      <rect id="Rectangle_21" data-name="Rectangle 21" width="165" height="165" rx="13" transform="translate(1687 711)" fill="#bc35f8"/>
      <g id="Rectangle_27" data-name="Rectangle 27" transform="translate(30 188)" fill="none" stroke="#354cfc" stroke-width="2">
        <rect width="1860" height="824" rx="41" stroke="none"/>
        <rect x="1" y="1" width="1858" height="822" rx="40" fill="none"/>
      </g>
    </g>
  </g>
</svg>
